<?xml version="1.0" encoding="utf-8"?>
<!-- Generator: Adobe Illustrator 18.0.0, SVG Export Plug-In . SVG Version: 6.00 Build 0)  -->
<!DOCTYPE svg PUBLIC "-//W3C//DTD SVG 1.1//EN" "http://www.w3.org/Graphics/SVG/1.1/DTD/svg11.dtd" [
	<!ENTITY ns_flows "http://ns.adobe.com/Flows/1.0/">
	<!ENTITY ns_extend "http://ns.adobe.com/Extensibility/1.0/">
	<!ENTITY ns_ai "http://ns.adobe.com/AdobeIllustrator/10.0/">
	<!ENTITY ns_graphs "http://ns.adobe.com/Graphs/1.0/">
]>
<svg version="1.1" id="Layer_1" xmlns:x="&ns_extend;" xmlns:i="&ns_ai;" xmlns:graph="&ns_graphs;"
	 xmlns="http://www.w3.org/2000/svg" xmlns:xlink="http://www.w3.org/1999/xlink" xmlns:a="http://ns.adobe.com/AdobeSVGViewerExtensions/3.0/"
	 x="0px" y="0px" viewBox="0 0 91.8 104.7" enable-background="new 0 0 91.8 104.7" xml:space="preserve">
<g>
	<defs>
		<rect id="SVGID_1_" x="-594.2" y="-19.4" width="1280" height="149.6"/>
	</defs>
	<clipPath id="SVGID_2_">
		<use xlink:href="#SVGID_1_"  overflow="visible"/>
	</clipPath>
</g>
<g>
	<g>
		<linearGradient id="SVGID_3_" gradientUnits="userSpaceOnUse" x1="68.8365" y1="82.6306" x2="50.0045" y2="7.8564">
			<stop  offset="0" style="stop-color:#8B613D"/>
			<stop  offset="0.5211" style="stop-color:#B9814D"/>
			<stop  offset="1" style="stop-color:#F4B576"/>
			<a:midPointStop  offset="0" style="stop-color:#8B613D"/>
			<a:midPointStop  offset="0.5" style="stop-color:#8B613D"/>
			<a:midPointStop  offset="0.5211" style="stop-color:#B9814D"/>
			<a:midPointStop  offset="0.5" style="stop-color:#B9814D"/>
			<a:midPointStop  offset="1" style="stop-color:#F4B576"/>
		</linearGradient>
		<polygon fill="url(#SVGID_3_)" points="58.6,19.8 47.4,0.4 47.4,19.8 58.6,39.3 		"/>
		<linearGradient id="SVGID_4_" gradientUnits="userSpaceOnUse" x1="56.2889" y1="85.7906" x2="37.4568" y2="11.0162">
			<stop  offset="0" style="stop-color:#8B613D"/>
			<stop  offset="0.5211" style="stop-color:#B9814D"/>
			<stop  offset="1" style="stop-color:#F4B576"/>
			<a:midPointStop  offset="0" style="stop-color:#8B613D"/>
			<a:midPointStop  offset="0.5" style="stop-color:#8B613D"/>
			<a:midPointStop  offset="0.5211" style="stop-color:#B9814D"/>
			<a:midPointStop  offset="0.5" style="stop-color:#B9814D"/>
			<a:midPointStop  offset="1" style="stop-color:#F4B576"/>
		</linearGradient>
		<polygon fill="url(#SVGID_4_)" points="34.1,39.3 45.3,19.8 45.3,0.4 34.1,19.8 		"/>
		<linearGradient id="SVGID_5_" gradientUnits="userSpaceOnUse" x1="47.0053" y1="88.1287" x2="28.1732" y2="13.3545">
			<stop  offset="0" style="stop-color:#8B613D"/>
			<stop  offset="0.5211" style="stop-color:#B9814D"/>
			<stop  offset="1" style="stop-color:#F4B576"/>
			<a:midPointStop  offset="0" style="stop-color:#8B613D"/>
			<a:midPointStop  offset="0.5" style="stop-color:#8B613D"/>
			<a:midPointStop  offset="0.5211" style="stop-color:#B9814D"/>
			<a:midPointStop  offset="0.5" style="stop-color:#B9814D"/>
			<a:midPointStop  offset="1" style="stop-color:#F4B576"/>
		</linearGradient>
		<polygon fill="url(#SVGID_5_)" points="34.1,59 45.3,78.5 45.3,59 34.1,39.6 		"/>
		<linearGradient id="SVGID_6_" gradientUnits="userSpaceOnUse" x1="41.9361" y1="89.4053" x2="23.104" y2="14.631">
			<stop  offset="0" style="stop-color:#8B613D"/>
			<stop  offset="0.5211" style="stop-color:#B9814D"/>
			<stop  offset="1" style="stop-color:#F4B576"/>
			<a:midPointStop  offset="0" style="stop-color:#8B613D"/>
			<a:midPointStop  offset="0.5" style="stop-color:#8B613D"/>
			<a:midPointStop  offset="0.5211" style="stop-color:#B9814D"/>
			<a:midPointStop  offset="0.5" style="stop-color:#B9814D"/>
			<a:midPointStop  offset="1" style="stop-color:#F4B576"/>
		</linearGradient>
		<polygon fill="url(#SVGID_6_)" points="22.7,39.4 28.4,49.1 31.9,55.4 31.9,42.9 31.9,35.9 31.9,23.5 28.4,29.7 		"/>
		<linearGradient id="SVGID_7_" gradientUnits="userSpaceOnUse" x1="73.9056" y1="81.3538" x2="55.0735" y2="6.5795">
			<stop  offset="0" style="stop-color:#8B613D"/>
			<stop  offset="0.5211" style="stop-color:#B9814D"/>
			<stop  offset="1" style="stop-color:#F4B576"/>
			<a:midPointStop  offset="0" style="stop-color:#8B613D"/>
			<a:midPointStop  offset="0.5" style="stop-color:#8B613D"/>
			<a:midPointStop  offset="0.5211" style="stop-color:#B9814D"/>
			<a:midPointStop  offset="0.5" style="stop-color:#B9814D"/>
			<a:midPointStop  offset="1" style="stop-color:#F4B576"/>
		</linearGradient>
		<polygon fill="url(#SVGID_7_)" points="64.3,29.7 60.8,23.5 60.8,35.9 60.8,42.9 60.8,55.4 64.3,49.1 70,39.4 		"/>
		<linearGradient id="SVGID_8_" gradientUnits="userSpaceOnUse" x1="59.5529" y1="84.9685" x2="40.7208" y2="10.1942">
			<stop  offset="0" style="stop-color:#8B613D"/>
			<stop  offset="0.5211" style="stop-color:#B9814D"/>
			<stop  offset="1" style="stop-color:#F4B576"/>
			<a:midPointStop  offset="0" style="stop-color:#8B613D"/>
			<a:midPointStop  offset="0.5" style="stop-color:#8B613D"/>
			<a:midPointStop  offset="0.5211" style="stop-color:#B9814D"/>
			<a:midPointStop  offset="0.5" style="stop-color:#B9814D"/>
			<a:midPointStop  offset="1" style="stop-color:#F4B576"/>
		</linearGradient>
		<polygon fill="url(#SVGID_8_)" points="47.4,78.5 58.6,59 58.6,39.6 47.4,59 		"/>
	</g>
	<g>
		<path fill="#B9814D" d="M1.7,94.6v3.8h4.4v-3.8h1.2v9.1H6.1v-4.3H1.7v4.3H0.5v-9.1H1.7z"/>
		<path fill="#B9814D" d="M17.7,99.1c0,3.1-1.9,4.8-4.2,4.8c-2.4,0-4.1-1.9-4.1-4.6c0-2.9,1.8-4.8,4.2-4.8
			C16.1,94.5,17.7,96.4,17.7,99.1z M10.7,99.2c0,1.9,1.1,3.7,2.9,3.7c1.9,0,2.9-1.7,2.9-3.8c0-1.8-0.9-3.7-2.9-3.7
			C11.6,95.4,10.7,97.2,10.7,99.2z"/>
		<path fill="#B9814D" d="M21.6,95.6h-2.8v-1h6.7v1h-2.8v8.1h-1.2V95.6z"/>
		<path fill="#B9814D" d="M31.9,99.4h-3.5v3.3h3.9v1h-5.1v-9.1h4.9v1h-3.7v2.9h3.5V99.4z"/>
		<path fill="#B9814D" d="M34.4,94.6h1.2v8.1h3.9v1h-5.1V94.6z"/>
		<path fill="#B9814D" d="M44.6,94.7c0.7-0.1,1.6-0.2,2.5-0.2c1.7,0,2.9,0.4,3.7,1.1c0.8,0.7,1.3,1.8,1.3,3.3c0,1.5-0.5,2.7-1.3,3.5
			c-0.9,0.9-2.3,1.3-4,1.3c-0.8,0-1.5,0-2.1-0.1V94.7z M45.8,102.8c0.3,0.1,0.7,0.1,1.2,0.1c2.5,0,3.9-1.4,3.9-3.9
			c0-2.1-1.2-3.5-3.7-3.5c-0.6,0-1.1,0.1-1.4,0.1V102.8z"/>
		<path fill="#B9814D" d="M58.9,99.4h-3.5v3.3h3.9v1h-5.1v-9.1h4.9v1h-3.7v2.9h3.5V99.4z"/>
		<path fill="#B9814D" d="M61.4,94.6h1.2v8.1h3.9v1h-5.1V94.6z"/>
		<path fill="#B9814D" d="M69.6,94.6v5.4c0,2,0.9,2.9,2.1,2.9c1.4,0,2.2-0.9,2.2-2.9v-5.4h1.2v5.3c0,2.8-1.5,3.9-3.4,3.9
			c-1.9,0-3.3-1.1-3.3-3.9v-5.4H69.6z"/>
		<path fill="#B9814D" d="M82.7,103.7l-1.2-2c-0.5-0.8-0.8-1.3-1.1-1.8h0c-0.3,0.5-0.5,1-1,1.8l-1.1,2h-1.4l2.8-4.6l-2.7-4.5h1.4
			l1.2,2.1c0.3,0.6,0.6,1.1,0.8,1.5h0c0.3-0.5,0.5-1,0.8-1.5l1.2-2.1H84L81.3,99l2.8,4.7H82.7z"/>
		<path fill="#B9814D" d="M90.8,99.4h-3.5v3.3h3.9v1h-5.1v-9.1H91v1h-3.7v2.9h3.5V99.4z"/>
	</g>
</g>
</svg>
